<svg width="41" height="36" viewBox="0 0 41 36" fill="none" xmlns="http://www.w3.org/2000/svg">
<path d="M40.8749 20.1868V31.0569C40.8749 32.2925 40.384 33.4774 39.5104 34.3511C38.6367 35.2248 37.4518 35.7156 36.2162 35.7156H33.1105C31.8749 35.7156 30.69 35.2248 29.8163 34.3511C28.9426 33.4774 28.4518 32.2925 28.4518 31.0569V23.2925C28.4518 22.057 28.9426 20.8721 29.8163 19.9984C30.69 19.1247 31.8749 18.6339 33.1105 18.6339H37.7012C37.3281 14.4064 35.3897 10.4706 32.2657 7.59797C29.1417 4.72535 25.0575 3.12305 20.8136 3.10512H20.6874C16.4258 3.1049 12.3179 4.69772 9.17043 7.57085C6.02291 10.444 4.06306 14.3899 3.67564 18.6339H8.26439C9.49994 18.6339 10.6849 19.1247 11.5585 19.9984C12.4322 20.8721 12.923 22.057 12.923 23.2925V31.0569C12.923 32.2925 12.4322 33.4774 11.5585 34.3511C10.6849 35.2248 9.49994 35.7156 8.26439 35.7156H5.15864C3.92309 35.7156 2.73815 35.2248 1.86448 34.3511C0.990819 33.4774 0.5 32.2925 0.5 31.0569V20.1868C0.504354 16.1879 1.69499 12.2802 3.92119 8.95836C6.1474 5.63648 9.3091 3.04973 13.0061 1.52555C16.7031 0.00135913 20.7692 -0.391747 24.6897 0.395986C28.6102 1.18372 32.2089 3.11688 35.0302 5.95077C36.893 7.82258 38.368 10.0436 39.371 12.4864C40.3739 14.9293 40.885 17.5461 40.8749 20.1868Z" fill="#1F1F1F"/>
</svg>
