<svg width="32" height="33" viewBox="0 0 32 33" fill="none" xmlns="http://www.w3.org/2000/svg">
<path d="M31.75 20.625V31.125C31.75 31.4731 31.6117 31.8069 31.3656 32.0531C31.1194 32.2992 30.7856 32.4375 30.4375 32.4375H1.5625C1.2144 32.4375 0.880564 32.2992 0.634423 32.0531C0.388281 31.8069 0.25 31.4731 0.25 31.125V20.625C0.25 20.2769 0.388281 19.9431 0.634423 19.6969C0.880564 19.4508 1.2144 19.3125 1.5625 19.3125C1.9106 19.3125 2.24444 19.4508 2.49058 19.6969C2.73672 19.9431 2.875 20.2769 2.875 20.625V29.8125H29.125V20.625C29.125 20.2769 29.2633 19.9431 29.5094 19.6969C29.7556 19.4508 30.0894 19.3125 30.4375 19.3125C30.7856 19.3125 31.1194 19.4508 31.3656 19.6969C31.6117 19.9431 31.75 20.2769 31.75 20.625ZM15.0714 21.5536C15.1933 21.6756 15.3381 21.7724 15.4974 21.8385C15.6567 21.9045 15.8275 21.9385 16 21.9385C16.1725 21.9385 16.3433 21.9045 16.5026 21.8385C16.6619 21.7724 16.8067 21.6756 16.9286 21.5536L23.4911 14.9911C23.6749 14.8075 23.8 14.5736 23.8508 14.3188C23.9015 14.0641 23.8755 13.8 23.7761 13.5601C23.6766 13.3201 23.5083 13.1151 23.2922 12.9709C23.0762 12.8267 22.8222 12.7498 22.5625 12.75H17.3125V2.25C17.3125 1.9019 17.1742 1.56806 16.9281 1.32192C16.6819 1.07578 16.3481 0.9375 16 0.9375C15.6519 0.9375 15.3181 1.07578 15.0719 1.32192C14.8258 1.56806 14.6875 1.9019 14.6875 2.25V12.75H9.4375C9.17776 12.7498 8.9238 12.8267 8.70777 12.9709C8.49174 13.1151 8.32336 13.3201 8.22393 13.5601C8.12451 13.8 8.09851 14.0641 8.14924 14.3188C8.19997 14.5736 8.32514 14.8075 8.50891 14.9911L15.0714 21.5536Z" fill="black"/>
</svg>
