<svg width="41" height="33" viewBox="0 0 41 33" fill="none" xmlns="http://www.w3.org/2000/svg">
<path d="M40.8749 7.76439V29.6775C40.8738 30.455 40.5645 31.2004 40.0147 31.7503C39.4648 32.3001 38.7194 32.6094 37.9419 32.6105H3.60576C2.78206 32.6105 1.9921 32.2832 1.40966 31.7008C0.827213 31.1184 0.5 30.3284 0.5 29.5047V3.10576C0.5 2.28206 0.827213 1.4921 1.40966 0.909655C1.9921 0.327213 2.78206 0 3.60576 0H13.9576C14.6294 0.00166612 15.2827 0.219451 15.8211 0.621152L21.2057 4.65864H37.7691C38.5928 4.65864 39.3828 4.98585 39.9652 5.56829C40.5476 6.15074 40.8749 6.9407 40.8749 7.76439Z" fill="#1F1F1F"/>
</svg>
