<svg width="48" height="28" viewBox="0 0 48 28" fill="none" xmlns="http://www.w3.org/2000/svg">
<path d="M34.6633 3.10576V24.8461C34.6633 25.6698 34.3361 26.4597 33.7537 27.0422C33.1712 27.6246 32.3813 27.9518 31.5576 27.9518H3.60576C2.78206 27.9518 1.9921 27.6246 1.40966 27.0422C0.827213 26.4597 0.5 25.6698 0.5 24.8461V3.10576C0.5 2.28206 0.827213 1.4921 1.40966 0.909655C1.9921 0.327213 2.78206 0 3.60576 0H31.5576C32.3813 0 33.1712 0.327213 33.7537 0.909655C34.3361 1.4921 34.6633 2.28206 34.6633 3.10576ZM45.9217 3.15429C45.7026 3.10068 45.4747 3.09406 45.2529 3.13488C45.0311 3.1757 44.8204 3.26302 44.6348 3.3911L38.1146 7.73722C38.0082 7.80818 37.9211 7.90431 37.8608 8.01708C37.8005 8.12984 37.769 8.25574 37.7691 8.38361V19.5682C37.769 19.6961 37.8005 19.822 37.8608 19.9347C37.9211 20.0475 38.0082 20.1436 38.1146 20.2146L44.6716 24.586C44.9171 24.7497 45.2041 24.8401 45.499 24.8466C45.794 24.8532 46.0847 24.7755 46.3371 24.6228C46.5707 24.4744 46.7622 24.2684 46.8934 24.0247C47.0246 23.7811 47.091 23.5078 47.0864 23.2311V4.65864C47.0865 4.31424 46.9722 3.97955 46.7614 3.70722C46.5506 3.4349 46.2552 3.24039 45.9217 3.15429Z" fill="#1F1F1F"/>
</svg>
